<svg id="Icons" xmlns="http://www.w3.org/2000/svg" viewBox="0 0 48 48"><defs><style>.cls-1{fill:#46b000;}.cls-1,.cls-2,.cls-5{stroke:#45413c;stroke-linecap:round;stroke-linejoin:round;}.cls-2{fill:#ffe500;}.cls-3{fill:#009fd9;}.cls-4{fill:#fff;}.cls-5{fill:none;}.cls-6{fill:#45413c;opacity:0.15;}</style></defs><title>760-Brazil</title><g id="_Group_" data-name="&lt;Group&gt;"><path class="cls-1" d="M45,12.25H38.68A45.89,45.89,0,0,1,24,9.88,45.73,45.73,0,0,0,9.37,7.5H3c-.58,0-1,.35-1,.79v26a.94.94,0,0,0,1,.79H9.37A46,46,0,0,1,24,37.46a45.62,45.62,0,0,0,14.65,2.38H45a.93.93,0,0,0,1-.79V13A.94.94,0,0,0,45,12.25Z"/><path id="_Path_" data-name="&lt;Path&gt;" class="cls-2" d="M24,34.47s-3.55-2.77-7.59-6.11c-3.7-3.06-8-6.33-8-6.33S12,19.53,16.34,17,24,12.87,24,12.87s3.42,2.68,7.58,6c4.44,3.56,8,6.42,8,6.42S35.78,28,31.53,30.48,24,34.47,24,34.47Z"/><ellipse id="_Path_2" data-name="&lt;Path&gt;" class="cls-3" cx="24.03" cy="23.67" rx="5.92" ry="6.99" transform="translate(-5.37 7.14) rotate(-15.22)"/><path id="_Path_3" data-name="&lt;Path&gt;" class="cls-4" d="M18.22,21.38A7.86,7.86,0,0,0,18,23.09c0,.2,0,.39,0,.59a21.14,21.14,0,0,1,7.57.77,15.62,15.62,0,0,1,4.13,1.85A7.58,7.58,0,0,0,30,24.25s0,0,0-.05a14.82,14.82,0,0,0-4.4-2A21.33,21.33,0,0,0,18.22,21.38Z"/><ellipse id="_Path_4" data-name="&lt;Path&gt;" class="cls-4" cx="21.32" cy="26.16" rx="0.58" ry="0.54"/><ellipse id="_Path_5" data-name="&lt;Path&gt;" class="cls-4" cx="24.33" cy="28.77" rx="0.44" ry="0.41"/><ellipse id="_Path_6" data-name="&lt;Path&gt;" class="cls-4" cx="23.89" cy="27.11" rx="0.44" ry="0.41"/><ellipse id="_Path_7" data-name="&lt;Path&gt;" class="cls-4" cx="27.64" cy="21.33" rx="0.44" ry="0.41"/><ellipse id="_Path_8" data-name="&lt;Path&gt;" class="cls-5" cx="24.03" cy="23.67" rx="5.92" ry="6.99" transform="translate(-5.37 7.14) rotate(-15.22)"/></g><ellipse class="cls-6" cx="24" cy="45.5" rx="11.5" ry="1.5"/></svg>