<svg id="Icons" xmlns="http://www.w3.org/2000/svg" viewBox="0 0 48 48"><defs><style>.cls-1{fill:#fff;}.cls-1,.cls-2{stroke:#45413c;stroke-linecap:round;stroke-linejoin:round;}.cls-2{fill:#e04122;}.cls-3{fill:#45413c;opacity:0.15;}</style></defs><title>774-Japan</title><g id="_Group_" data-name="&lt;Group&gt;"><path class="cls-1" d="M45,12.25H38.68A45.89,45.89,0,0,1,24,9.88,45.73,45.73,0,0,0,9.37,7.5H3c-.58,0-1,.35-1,.79v26a.94.94,0,0,0,1,.79H9.37A46,46,0,0,1,24,37.46a45.62,45.62,0,0,0,14.65,2.38H45a.93.93,0,0,0,1-.79V13A.94.94,0,0,0,45,12.25Z"/><ellipse id="_Path_" data-name="&lt;Path&gt;" class="cls-2" cx="24.03" cy="23.67" rx="8.11" ry="9.26" transform="translate(-6.57 9.48) rotate(-19.69)"/></g><ellipse class="cls-3" cx="24" cy="45.5" rx="11.5" ry="1.5"/></svg>